<svg width="101" height="80" viewBox="0 0 101 80" fill="none" xmlns="http://www.w3.org/2000/svg">
<g clip-path="url(#clip0_47_10)">
<path fill-rule="evenodd" clip-rule="evenodd" d="M86.1654 41.9977C84.9482 42.1837 84.1117 43.3253 84.2968 44.5477C86.3122 57.8659 87.4963 64.0935 90.0084 77.2112C90.2412 78.4253 91.4094 79.2206 92.6187 78.9869C93.8276 78.7533 94.6192 77.5799 94.3865 76.3655C91.8781 63.2659 90.707 57.1056 88.7042 43.8748C88.5192 42.6524 87.3827 41.8117 86.1654 41.9977Z" fill="#6ABF6C"/>
<path fill-rule="evenodd" clip-rule="evenodd" d="M76.1706 39.2703C74.9626 39.5081 74.1748 40.6847 74.4117 41.8983C77.1332 55.8441 78.3963 62.924 80.3519 77.0913C80.5206 78.316 81.6463 79.1712 82.8659 79.0016C84.0855 78.8315 84.9369 77.7011 84.7678 76.4763C82.7981 62.2058 81.5196 55.0408 78.7869 41.0371C78.55 39.8235 77.379 39.0324 76.1706 39.2703Z" fill="#6ABF6C"/>
<path fill-rule="evenodd" clip-rule="evenodd" d="M65.1374 29.2147C67.0496 24.2802 70.2024 19.605 73.0458 15.0437C75.6744 10.8361 77.7996 6.0389 81.5421 2.71605C83.786 0.719367 86.5038 -0.0265679 89.043 0.365301C92.4351 0.894086 94.6351 3.71614 95.3272 5.10367C97.8842 10.2081 98.93 14.8703 99.8197 23.581C100.574 30.9551 102.464 41.5767 98.6187 48.4982C94.8767 55.2304 86.3253 59.101 78.4916 57.2141C72.3356 55.729 67.1753 51.0496 64.8585 45.3538C62.5211 39.6132 63.1725 34.2804 65.1374 29.2147Z" fill="#6ABF6C"/>
<path fill-rule="evenodd" clip-rule="evenodd" d="M89.8323 39.5519C89.8799 33.3388 85.2276 26.7575 79.4374 26.7186C73.6426 26.6855 68.9 33.2089 68.8575 39.4215C68.8155 45.6346 73.4734 50.7009 79.2687 50.7392C85.0533 50.7734 89.7902 45.7645 89.8323 39.5519Z" fill="#F8D54F"/>
<path fill-rule="evenodd" clip-rule="evenodd" d="M80.465 9.70862C80.1342 10.7857 80.3753 11.8178 81.0056 12.0116C81.6356 12.2053 82.4127 11.4895 82.7435 10.4124C83.0739 9.33544 82.8328 8.30334 82.2028 8.10955C81.5725 7.91572 80.7958 8.63161 80.465 9.70862Z" fill="black"/>
<path fill-rule="evenodd" clip-rule="evenodd" d="M85.1402 11.1566C84.8099 12.2337 85.051 13.2658 85.6809 13.4596C86.3113 13.6534 87.0879 12.9375 87.4187 11.8605C87.7496 10.7835 87.508 9.75137 86.8781 9.55754C86.2482 9.36375 85.4711 10.0796 85.1402 11.1566Z" fill="black"/>
<path fill-rule="evenodd" clip-rule="evenodd" d="M41.6444 9.90236L68.0557 0.549599C69.5977 0.00357065 71.2903 0.810907 71.8365 2.35287L83.7804 36.081C84.3262 37.6231 83.5188 39.3156 81.9772 39.8618L55.5655 49.2146L41.6444 9.90236Z" fill="#F2A951"/>
<path fill-rule="evenodd" clip-rule="evenodd" d="M57.8122 48.4193L60.0585 47.624L60.8538 49.8703L59.4655 49.5194L58.6075 50.6656L57.8122 48.4193Z" fill="#E36D3C"/>
<path d="M14.538 72.4099H32.7033" stroke="#6ABF6C" stroke-width="3.89257" stroke-linecap="round"/>
<path d="M13.2404 77.2759H37.5689" stroke="#6ABF6C" stroke-width="3.89257" stroke-linecap="round"/>
<path fill-rule="evenodd" clip-rule="evenodd" d="M24.4035 60.8696C23.1654 57.7084 21.1242 54.7131 19.2832 51.7906C17.5814 49.0949 16.2054 46.0215 13.7826 43.8925C12.3298 42.6135 10.5702 42.1355 8.92607 42.3864C6.73004 42.7252 5.30546 44.5332 4.85742 45.4224C3.20209 48.6925 2.52485 51.6794 1.94892 57.2603C1.4606 61.985 0.236818 68.7897 2.72649 73.2243C5.1492 77.5374 10.6856 80.0173 15.7575 78.8084C19.7432 77.857 23.084 74.8589 24.5839 71.2098C26.0972 67.5318 25.6758 64.1154 24.4035 60.8696Z" fill="#6ABF6C"/>
<path fill-rule="evenodd" clip-rule="evenodd" d="M8.41527 66.1949C8.38462 62.2146 11.3965 57.9982 15.1453 57.973C18.897 57.952 21.9678 62.1314 21.9951 66.1118C22.0224 70.0921 19.0068 73.3379 15.2547 73.3627C11.5096 73.3847 8.44261 70.1753 8.41527 66.1949Z" fill="#F8D54F"/>
<path fill-rule="evenodd" clip-rule="evenodd" d="M14.4798 48.3725C14.6939 49.0627 14.5377 49.7239 14.1297 49.8482C13.7218 49.9725 13.2188 49.5136 13.0047 48.8234C12.7906 48.1337 12.9467 47.4725 13.3547 47.3482C13.7626 47.2239 14.2657 47.6828 14.4798 48.3725Z" fill="black"/>
<path fill-rule="evenodd" clip-rule="evenodd" d="M11.4527 49.3006C11.6668 49.9903 11.5106 50.652 11.1027 50.7758C10.6947 50.9001 10.1917 50.4412 9.97758 49.7515C9.76347 49.0613 9.91969 48.4001 10.3276 48.2758C10.7356 48.152 11.2386 48.6104 11.4527 49.3006Z" fill="black"/>
</g>
<defs>
<clipPath id="clip0_47_10">
<rect width="100" height="79.4393" fill="white" transform="translate(0.950012 0.000488281)"/>
</clipPath>
</defs>
</svg>
