<svg width="210" height="234" viewBox="0 0 210 234" fill="none" xmlns="http://www.w3.org/2000/svg">
<circle cx="105" cy="105" r="105" fill="#F5F8FC"/>
<path d="M82.4002 148.241C82.6002 172.841 81.9002 197.541 80.2002 222.141Z" fill="#6ABF6C"/>
<path d="M82.4002 148.241C82.6002 172.841 81.9002 197.541 80.2002 222.141" stroke="#6ABF6C" stroke-width="8" stroke-miterlimit="10" stroke-linecap="round"/>
<path d="M61.5999 148.241C61.7999 172.841 61.0999 197.541 59.3999 222.141Z" fill="#6ABF6C"/>
<path d="M61.5999 148.241C61.7999 172.841 61.0999 197.541 59.3999 222.141" stroke="#6ABF6C" stroke-width="8" stroke-miterlimit="10" stroke-linecap="round"/>
<path d="M83.9045 101.708C64.4761 96.5839 28.1181 113.261 35.6817 138.119" stroke="#6ABF6C" stroke-width="8" stroke-miterlimit="10" stroke-linecap="round"/>
<path d="M115.115 127.996C154.789 163.72 113.147 136.325 110.415 132.138" stroke="#6ABF6C" stroke-width="8" stroke-miterlimit="10" stroke-linecap="round"/>
<path d="M106.017 151.665C111.547 143.366 114.792 135.901 119.084 127.038C122.964 118.868 130.543 112.972 132.008 103.986C132.85 98.5688 131.432 93.6261 128.296 90.1149C125.074 86.6529 120.27 84.6602 114.823 84.9842C105.717 85.5407 99.5635 92.6139 91.0787 95.6909C81.7992 98.9878 71.348 102.573 62.546 107.323C43.7119 117.289 35.3655 134.42 44.4994 153.61C45.8518 156.407 47.5524 159.007 49.5026 161.235C51.5399 163.414 53.9253 165.397 56.5604 167.008C74.7219 177.989 94.1205 169.426 106.017 151.665Z" fill="#6ABF6C"/>
<path d="M64.5525 130.171C72.7632 122.344 87.3542 120.446 94.6458 128.054C101.994 135.744 99.1747 150.18 90.9641 158.007C82.7534 165.834 70.161 165.874 62.8127 158.183C55.6035 150.519 56.4242 137.942 64.5525 130.171Z" fill="#F8D54F"/>
<path d="M124.061 110.831C122.577 111.942 120.986 112.197 120.271 111.33C119.594 110.545 120.234 108.93 121.679 107.737C123.164 106.626 124.754 106.371 125.47 107.239C126.065 108.063 125.425 109.678 124.061 110.831Z" fill="#0F1720"/>
<path d="M118.454 104.043C117.009 105.205 115.429 105.516 114.683 104.674C113.979 103.913 114.563 102.277 115.966 101.034C117.41 99.8721 118.991 99.5617 119.737 100.403C120.36 101.206 119.776 102.842 118.454 104.043Z" fill="#0F1720"/>
<path d="M103 105.5C103 104.119 104.119 103 105.5 103L108 103L108 108L105.5 108C104.119 108 103 106.881 103 105.5V105.5Z" fill="#FFC4C4"/>
<path d="M109.119 99.623C108.808 100.3 106.821 104.036 108.26 109.059C109.544 113.676 112.713 115.991 113.459 116.448" stroke="#0F1720" stroke-width="1.5" stroke-miterlimit="10" stroke-linecap="round" stroke-linejoin="round"/>
<path d="M120.489 135.754C119.625 137.313 117.66 137.877 116.101 137.012V137.012C114.542 136.148 113.979 134.184 114.843 132.625L119.495 124.232C119.807 123.67 120.515 123.467 121.076 123.779L124.688 125.781C125.25 126.092 125.453 126.8 125.141 127.362L120.489 135.754Z" fill="#5E718A"/>
<rect x="124.764" y="125.823" width="4.30345" height="2.68965" transform="rotate(-151 124.764 125.823)" fill="#95A6BD"/>
<ellipse cx="129.657" cy="112.171" rx="12.6855" ry="12.6855" transform="rotate(-151 129.657 112.171)" fill="#ABDBF5"/>
<ellipse cx="129.656" cy="112.171" rx="12.1976" ry="12.1976" transform="rotate(-151 129.656 112.171)" fill="#ABDBF5"/>
<circle cx="129.657" cy="112.171" r="9.16169" transform="rotate(-151 129.657 112.171)" fill="#E8F7FF"/>
<mask id="mask0_2637:13134" style="mask-type:alpha" maskUnits="userSpaceOnUse" x="120" y="103" width="19" height="19">
<circle cx="129.657" cy="112.171" r="9.16169" transform="rotate(-151 129.657 112.171)" fill="#E8F7FF"/>
</mask>
<g mask="url(#mask0_2637:13134)">
<path d="M133.5 114.5C130.5 118 129.001 123 128 124L122 120L119.5 117L119 112L119 106.5L125 101.5L133.5 101.5L139.5 106.5C138.5 108 135.901 111.7 133.5 114.5Z" fill="#63A665"/>
</g>
<path d="M121 132C130 138 132 145 132 145" stroke="#6ABF6C" stroke-width="8" stroke-miterlimit="10" stroke-linecap="round"/>
<path d="M130.623 113.617C128.679 115.181 126.552 115.599 125.548 114.466C124.602 113.442 125.386 111.241 127.274 109.569C129.218 108.005 131.345 107.587 132.348 108.72C133.187 109.8 132.402 112.002 130.623 113.617Z" fill="#0F1720"/>
<g clip-path="url(#clip0_2637:13134)">
<path d="M144.853 202.396L146.729 224.904" stroke="#6ABF6C" stroke-width="4.22034" stroke-linecap="round" stroke-linejoin="round"/>
<path d="M136.412 202.396L138.288 224.904" stroke="#6ABF6C" stroke-width="4.22034" stroke-linecap="round" stroke-linejoin="round"/>
<path d="M132.882 203.309C138.139 206.053 144.764 205.575 149.79 202.851C154.856 200.108 157.498 195.892 159.022 191.09C160.507 186.411 160.936 181.188 161.523 176.229C162.061 171.651 163.311 166.944 162.517 162.345C162.045 159.581 160.34 157.1 158.17 155.946C156 154.793 152.792 154.661 150.238 155.813C145.979 157.729 142.778 161.395 139.283 164.401C135.5 167.661 131.406 170.938 128.362 174.784C125.232 178.733 123.213 183.283 123.774 189.015C124.324 194.706 127.56 200.428 132.847 203.291L132.882 203.309Z" fill="#6ABF6C"/>
<path d="M128.02 182.395C130.682 177.293 137.409 173.966 142.237 176.493C147.066 179.026 148.17 186.456 145.504 191.555C142.838 196.654 136.765 198.739 131.933 196.21C127.111 193.683 125.353 187.494 128.02 182.395Z" fill="#F8D54F"/>
<ellipse rx="1.17232" ry="1.87571" transform="matrix(-0.882948 -0.469472 -0.469472 0.882948 151.512 165.38)" fill="#0F1720"/>
<ellipse rx="1.17232" ry="1.87571" transform="matrix(-0.882948 -0.469472 -0.469472 0.882948 147.443 163.217)" fill="#0F1720"/>
</g>
<path d="M167.518 146.073C169.572 147.372 171.815 147.076 173.142 145.347C174.64 143.395 173.998 141.012 172.11 139.563C170.666 138.455 168.755 138.022 166.779 138.724L167.201 140.737C168.354 140.286 169.643 140.544 170.532 141.226C171.436 141.92 171.816 142.968 171.025 143.999C170.088 145.221 168.722 145.03 166.516 143.338L164.349 146.162L166.3 147.66L167.518 146.073ZM162.25 148.207C161.702 148.921 161.828 149.875 162.605 150.471C163.367 151.056 164.32 150.93 164.868 150.216C165.404 149.518 165.291 148.549 164.529 147.964C163.752 147.368 162.786 147.509 162.25 148.207Z" fill="#405167"/>
<defs>
<clipPath id="clip0_2637:13134">
<rect width="46.8927" height="83" fill="white" transform="matrix(-1 0 0 1 166.893 148)"/>
</clipPath>
</defs>
</svg>
