<svg width="212" height="37" viewBox="0 0 212 37" fill="none" xmlns="http://www.w3.org/2000/svg">
<path d="M35.2762 36.0121C34.4406 35.3346 33.8646 34.5527 33.5483 33.6574C33.232 32.7621 33.0708 31.8787 33.0708 31.0043C33.0708 29.533 33.3991 27.6469 34.0556 25.3401C34.7122 23.0361 35.5956 20.6099 36.7087 18.0672C36.6281 18.106 36.5505 18.1269 36.47 18.1269C36.27 18.1269 36.0611 17.9001 35.8433 17.4405C35.6254 16.9839 35.515 16.4975 35.515 15.9812C35.515 15.4261 35.703 14.868 36.082 14.3129C36.458 13.7578 37.2041 13.34 38.3173 13.0595C38.556 12.9789 38.8724 12.9013 39.2723 12.8207C40.5436 10.4362 41.9164 8.26066 43.3877 6.291C44.859 4.32432 46.3272 2.84408 47.7985 1.8503C48.7117 1.21463 49.6757 0.746085 50.6904 0.447651C51.705 0.149217 52.7078 0 53.7016 0C54.8953 0 56.0652 0.217861 57.2201 0.656559C58.3721 1.09526 59.327 1.73987 60.0821 2.59339C60.8371 3.4499 61.2161 4.51233 61.2161 5.78366V5.84335C61.2161 6.00152 61.1564 6.08209 61.0371 6.08209C60.9177 6.08209 60.8192 5.98361 60.7386 5.78366C60.4611 4.70929 59.9239 3.9453 59.1301 3.4887C58.3333 3.03209 57.4618 2.8023 56.5068 2.8023C55.7518 2.8023 54.9968 2.92168 54.2417 3.16043C53.4867 3.39917 52.8301 3.69761 52.275 4.05573C50.8455 4.97192 49.4131 6.23131 47.9836 7.84286C46.5541 9.4544 45.2618 11.054 44.1069 12.6417C45.1813 12.7223 46.1422 12.9013 46.9987 13.1789C47.8522 13.4564 48.479 13.7548 48.8759 14.0742C49.431 14.4711 49.8488 14.8889 50.1293 15.3276C50.2875 15.6051 50.368 15.8439 50.368 16.0438C50.368 16.2826 50.2696 16.4019 50.0696 16.4019C49.9502 16.4019 49.7712 16.3423 49.5324 16.2229C48.8162 15.7454 47.703 15.5066 46.193 15.5066C45.5573 15.5066 44.8619 15.5574 44.1069 15.6559C43.3519 15.7543 42.558 15.9245 41.7224 16.1632L40.9465 17.2972C39.6752 19.1654 38.5799 21.0844 37.6667 23.0511C36.7505 25.0177 36.0581 26.877 35.5806 28.6258C35.1031 30.3746 34.8644 31.8847 34.8644 33.156C34.8644 34.2692 35.1031 35.1227 35.5806 35.7196C35.7 35.8778 35.7 35.9882 35.5806 36.0479C35.4613 36.1076 35.3628 36.0986 35.2822 36.018L35.2762 36.0121Z" fill="#233345"/>
<path d="M52.09 31.243C50.5411 31.243 49.3772 30.8551 48.6013 30.0791C47.8254 29.3032 47.4374 28.3004 47.4374 27.0679C47.4374 26.3129 47.5359 25.5757 47.7358 24.8625C47.9328 24.1462 48.1536 23.5106 48.3924 22.9555C48.1148 23.233 47.8463 23.4837 47.5866 23.7016C47.33 23.9194 47.1211 24.0896 46.9599 24.2089C46.8017 24.3283 46.6615 24.388 46.5421 24.388C46.3839 24.388 46.3033 24.2895 46.3033 24.0895C46.3033 23.812 46.5033 23.4927 46.9002 23.1346C48.2909 21.9826 49.3832 20.959 50.18 20.0637C50.9738 19.1684 51.8095 18.3447 52.6839 17.5896C54.1551 16.3183 55.7249 15.3245 57.3932 14.6083C59.0614 13.892 60.7326 13.5339 62.4009 13.5339C64.0691 13.5339 65.5195 13.9517 66.5163 14.7874C67.5101 15.623 68.0055 16.8555 68.0055 18.4849C68.0055 19.4011 67.7369 20.4516 67.1997 21.6454C66.6625 22.8391 65.818 24.0716 64.666 25.343C64.1885 25.8593 63.6513 26.3666 63.0574 26.862C62.4606 27.3604 61.9443 27.7275 61.5086 27.9662C63.4544 27.7692 65.2838 27.0828 66.9938 25.91C68.7038 24.7371 70.2318 23.5762 71.5837 22.4213C71.7837 22.3019 71.9209 22.2422 72.0015 22.2422C72.2015 22.2422 72.2999 22.3407 72.2999 22.5407C72.2999 22.6988 72.2015 22.8779 72.0015 23.0779C70.2915 24.7073 68.4531 26.0801 66.4864 27.1933C64.5198 28.3064 62.3412 28.8436 59.9567 28.8018C58.566 29.5569 57.2051 30.1537 55.8711 30.5894C54.5401 31.0251 53.2777 31.246 52.084 31.246L52.09 31.243ZM54.7729 29.5748C55.328 29.5748 55.9249 29.4763 56.5605 29.2763C57.1962 29.0764 57.8319 28.8197 58.4675 28.5004C58.2288 28.5004 57.999 28.381 57.7811 28.1423C57.5633 27.9035 57.4528 27.5872 57.4528 27.1873C57.4528 26.3935 57.7513 25.5787 58.3482 24.7431C58.945 23.9075 59.6792 23.1942 60.5536 22.5974C61.428 22.0005 62.2815 21.7021 63.1171 21.7021C63.5946 21.7021 64.0423 21.8304 64.4601 22.09C64.8779 22.3497 65.1047 22.6959 65.1465 23.1346C65.8209 22.3795 66.2895 21.5648 66.5491 20.6904C66.8058 19.816 66.9371 19.0012 66.9371 18.2462C66.9371 17.2136 66.6088 16.4287 65.9522 15.8916C65.2957 15.3544 64.4123 15.0858 63.2992 15.0858C62.186 15.0858 61.043 15.4648 59.7508 16.2198C58.4586 16.9749 57.2469 17.9478 56.1129 19.1415C54.9788 20.3352 54.0447 21.6275 53.3106 23.0182C52.5734 24.4089 52.2064 25.7399 52.2064 27.0142C52.2064 28.7242 53.0599 29.5778 54.7699 29.5778L54.7729 29.5748Z" fill="#233345"/>
<path d="M75.8782 31.243C74.3293 31.243 73.1654 30.8551 72.3895 30.0791C71.6136 29.3032 71.2256 28.3004 71.2256 27.0679C71.2256 26.3129 71.3241 25.5757 71.524 24.8625C71.721 24.1462 71.9418 23.5106 72.1806 22.9555C71.903 23.233 71.6345 23.4837 71.3748 23.7016C71.1182 23.9194 70.9093 24.0896 70.7481 24.2089C70.5899 24.3283 70.4497 24.388 70.3303 24.388C70.1721 24.388 70.0916 24.2895 70.0916 24.0895C70.0916 23.812 70.2915 23.4927 70.6884 23.1346C72.0791 21.9826 73.1714 20.959 73.9682 20.0637C74.762 19.1684 75.5977 18.3447 76.4721 17.5896C77.9433 16.3183 79.5131 15.3245 81.1814 14.6083C82.8496 13.892 84.5208 13.5339 86.1891 13.5339C87.8573 13.5339 89.3077 13.9517 90.3045 14.7874C91.2983 15.623 91.7937 16.8555 91.7937 18.4849C91.7937 19.4011 91.5251 20.4516 90.9879 21.6454C90.4507 22.8391 89.6062 24.0716 88.4542 25.343C87.9767 25.8593 87.4395 26.3666 86.8456 26.862C86.2488 27.3604 85.7325 27.7275 85.2968 27.9662C87.2426 27.7692 89.072 27.0828 90.782 25.91C92.492 24.7371 94.02 23.5762 95.3719 22.4213C95.5719 22.3019 95.7091 22.2422 95.7897 22.2422C95.9897 22.2422 96.0881 22.3407 96.0881 22.5407C96.0881 22.6988 95.9897 22.8779 95.7897 23.0779C94.0797 24.7073 92.2413 26.0801 90.2746 27.1933C88.308 28.3064 86.1294 28.8436 83.7449 28.8018C82.3542 29.5569 80.9933 30.1537 79.6593 30.5894C78.3283 31.0251 77.066 31.246 75.8722 31.246L75.8782 31.243ZM78.5611 29.5748C79.1162 29.5748 79.7131 29.4763 80.3487 29.2763C80.9844 29.0764 81.6201 28.8197 82.2557 28.5004C82.017 28.5004 81.7872 28.381 81.5693 28.1423C81.3515 27.9035 81.241 27.5872 81.241 27.1873C81.241 26.3935 81.5395 25.5787 82.1363 24.7431C82.7332 23.9075 83.4674 23.1942 84.3418 22.5974C85.2162 22.0005 86.0697 21.7021 86.9053 21.7021C87.3828 21.7021 87.8305 21.8304 88.2483 22.09C88.6661 22.3497 88.8929 22.6959 88.9347 23.1346C89.6091 22.3795 90.0777 21.5648 90.3373 20.6904C90.594 19.816 90.7253 19.0012 90.7253 18.2462C90.7253 17.2136 90.397 16.4287 89.7405 15.8916C89.0839 15.3544 88.2005 15.0858 87.0874 15.0858C85.9742 15.0858 84.8312 15.4648 83.539 16.2198C82.2468 16.9749 81.0351 17.9478 79.9011 19.1415C78.767 20.3352 77.8329 21.6275 77.0988 23.0182C76.3616 24.4089 75.9946 25.7399 75.9946 27.0142C75.9946 28.7242 76.8481 29.5778 78.5581 29.5778L78.5611 29.5748Z" fill="#233345"/>
<path d="M111.89 35.9522C111.255 35.3941 110.786 34.6898 110.488 33.8363C110.189 32.9798 110.04 32.0188 110.04 30.9445C110.04 29.9507 110.15 28.8972 110.368 27.7841C110.586 26.6709 110.876 25.4981 111.234 24.2655C110.479 25.2205 109.634 26.1934 108.7 27.1872C107.766 28.181 106.882 29.0345 106.047 29.7507C104.379 31.1026 102.567 31.7771 100.621 31.7771C99.15 31.7771 97.8996 31.3086 96.864 30.3745C95.8285 29.4404 95.3152 27.981 95.3152 25.9935C95.3152 25.4772 95.3659 24.9788 95.4644 24.5043C95.5629 24.0268 95.6912 23.5493 95.8523 23.0748C95.6136 23.2747 95.3838 23.4717 95.1659 23.6716C94.9481 23.8716 94.7392 24.0507 94.5392 24.2088C94.3811 24.3282 94.2229 24.3879 94.0617 24.3879C93.8618 24.3879 93.7633 24.2894 93.7633 24.0895C93.7633 23.8507 93.9633 23.5732 94.3602 23.2538C94.8765 22.8181 95.4644 22.2213 96.118 21.4662C96.7745 20.7112 97.4997 19.8965 98.2935 19.022C99.6842 17.4732 101.382 16.2197 103.391 15.2648C105.396 14.3098 107.375 13.8353 109.324 13.8353C110.992 13.8353 112.215 14.1337 112.991 14.7306C113.767 15.3274 114.155 16.0437 114.155 16.8763C115.149 14.7694 116.191 12.7519 117.286 10.8241C118.378 8.89617 119.411 7.19807 120.387 5.72679C121.36 4.25551 122.165 3.16325 122.801 2.447C123.237 1.93071 123.786 1.55171 124.439 1.31296C125.096 1.07421 125.761 0.954834 126.436 0.954834C127.11 0.954834 127.767 1.05332 128.403 1.25327C129.038 1.45322 129.596 1.76956 130.071 2.20826C129.674 2.44701 129.047 3.01403 128.194 3.90635C127.337 4.80165 126.364 5.90288 125.272 7.21599C124.18 8.5291 123.046 9.93771 121.873 11.4478C120.7 12.9579 119.596 14.4679 118.563 15.978C117.331 17.7656 116.167 19.6965 115.074 21.7617C113.979 23.8298 113.096 25.8263 112.421 27.7542C111.744 29.6821 111.407 31.3802 111.407 32.8515C111.407 34.0452 111.666 34.9584 112.183 35.5941C112.302 35.7523 112.302 35.8627 112.183 35.9224C112.063 35.9821 111.965 35.991 111.884 35.9522H111.89ZM102.469 29.7507C103.185 29.7507 104.137 29.3837 105.331 28.6465C106.524 27.9124 107.993 26.65 109.741 24.8594C110.297 24.3043 110.744 23.8149 111.084 23.4001C111.422 22.9823 111.711 22.5764 111.95 22.1765C112.15 21.6214 112.347 21.0842 112.547 20.5679C112.747 20.0516 112.965 19.5354 113.203 19.0191C112.965 19.1772 112.786 19.2578 112.666 19.2578C112.347 19.2578 112.189 19.0787 112.189 18.7206C112.189 18.5625 112.248 18.3625 112.368 18.1238C112.765 17.4493 112.965 16.8524 112.965 16.3361C112.965 15.5005 112.487 15.0827 111.535 15.0827C111.019 15.0827 110.323 15.2409 109.449 15.5602C108.455 15.9571 107.432 16.5659 106.378 17.3777C105.325 18.1924 104.352 19.1474 103.456 20.2396C102.561 21.3349 101.848 22.457 101.311 23.609C100.774 24.7609 100.505 25.8562 100.505 26.8888C100.505 27.6438 100.654 28.3093 100.953 28.8853C101.251 29.4613 101.758 29.7507 102.472 29.7507H102.469Z" fill="#233345"/>
<path d="M125.066 31.3028C123.317 31.3028 121.855 30.8761 120.685 30.0226C119.512 29.1691 118.927 27.9276 118.927 26.2951C118.927 24.5463 119.345 22.9169 120.181 21.4068C121.016 19.8967 122.126 18.5746 123.52 17.4406C124.911 16.3065 126.43 15.4232 128.08 14.7875C129.731 14.1518 131.369 13.8325 132.998 13.8325C134.628 13.8325 135.84 14.122 136.636 14.698C137.43 15.2739 137.83 15.9812 137.83 16.8139C137.83 17.6465 137.463 18.4523 136.726 19.3476C135.989 20.2429 134.926 21.0278 133.536 21.7022C132.661 22.0991 131.658 22.4483 130.524 22.7467C129.39 23.0452 128.409 23.1944 127.573 23.1944C126.937 23.1944 126.618 23.0959 126.618 22.896C126.618 22.7378 126.895 22.6572 127.454 22.6572C127.97 22.6572 128.776 22.508 129.868 22.2096C130.96 21.9111 132.023 21.5053 133.058 20.986C134.21 20.3503 135.025 19.7147 135.502 19.079C135.98 18.4433 136.219 17.8673 136.219 17.3511C136.219 16.8736 136.03 16.4766 135.651 16.1573C135.272 15.841 134.747 15.6798 134.073 15.6798C133.437 15.6798 132.721 15.8589 131.927 16.217C130.772 16.7333 129.59 17.5779 128.379 18.7507C127.167 19.9236 126.161 21.2068 125.367 22.5975C124.571 23.9882 124.174 25.3193 124.174 26.5936C124.174 27.468 124.421 28.2021 124.92 28.799C125.415 29.3959 126.161 29.6943 127.155 29.6943C128.149 29.6943 129.381 29.366 130.733 28.7095C132.085 28.0529 133.455 27.2382 134.849 26.2653C136.239 25.2924 137.532 24.3076 138.725 23.3138C139.919 22.32 140.871 21.4874 141.587 20.8099C141.826 20.5712 142.005 20.4518 142.125 20.4518C142.244 20.4518 142.304 20.5503 142.304 20.7502C142.304 21.0278 142.184 21.2665 141.945 21.4665C140.435 22.8572 138.794 24.3076 137.027 25.8176C135.258 27.3277 133.371 28.611 131.363 29.6644C129.355 30.7179 127.26 31.2641 125.072 31.3028H125.066Z" fill="#233345"/>
<path d="M148.499 30.7656C146.789 30.7656 145.637 30.4373 145.04 29.7807C144.443 29.1242 144.145 28.399 144.145 27.6051C144.145 26.5726 144.542 25.4803 145.339 24.3254C145.816 23.6509 146.353 22.8839 146.947 22.0304C147.544 21.1769 148.099 20.3711 148.616 19.6161C149.132 18.861 149.49 18.3239 149.69 18.0075C149.967 17.6106 150.138 17.342 150.197 17.2017C150.257 17.0645 150.287 16.9152 150.287 16.7541C150.287 16.5153 150.138 16.2885 149.839 16.0677C149.541 15.8498 149.054 15.7394 148.377 15.7394C148.177 15.7394 148.01 15.7484 147.869 15.7693C147.729 15.7901 147.58 15.7991 147.422 15.7991C147.102 15.7991 146.923 15.7782 146.885 15.7394L146.706 15.9782C145.592 17.4494 144.399 18.8909 143.127 20.2995C141.856 21.7111 140.465 23.0123 138.952 24.206C138.794 24.3254 138.675 24.385 138.594 24.385C138.436 24.385 138.355 24.3045 138.355 24.1463C138.355 23.83 138.594 23.4718 139.072 23.0719C140.304 22.0393 141.516 20.8755 142.71 19.5833C143.903 18.291 144.975 16.9302 145.93 15.4977C145.571 15.2589 145.392 14.7814 145.392 14.0682C145.392 12.9938 145.73 11.8419 146.407 10.6093C146.885 9.77372 147.41 9.14998 147.986 8.73217C148.562 8.31437 149.069 8.10547 149.505 8.10547C150.34 8.10547 150.758 8.60385 150.758 9.59465C150.758 10.2303 150.52 11.0241 150.042 11.9791C149.842 12.4566 149.454 13.0625 148.878 13.7966C148.302 14.5337 147.735 15.059 147.18 15.3753C148.016 15.0978 149.078 14.9098 150.37 14.8083C151.663 14.7098 152.746 14.6591 153.62 14.6591C154.137 14.6591 154.772 14.8083 155.527 15.1067C156.282 15.4052 156.661 15.9334 156.661 16.6855C156.661 17.2017 156.423 17.7598 155.945 18.3537C155.826 18.5119 155.506 18.8909 154.99 19.4878C154.474 20.0846 153.907 20.8009 153.292 21.6335C152.674 22.4691 152.11 23.3017 151.594 24.1373C151.078 24.8924 150.669 25.5877 150.37 26.2234C150.072 26.8591 149.923 27.3962 149.923 27.832C149.923 28.4676 150.281 28.787 150.997 28.787C151.833 28.787 152.943 28.39 154.337 27.5932C155.727 26.7994 157.228 25.7758 158.837 24.5223C160.445 23.2689 161.926 21.9677 163.278 20.6158C163.436 20.4577 163.576 20.3771 163.695 20.3771C163.854 20.3771 163.934 20.4756 163.934 20.6755C163.934 20.9143 163.836 21.1321 163.636 21.3321C162.245 22.7228 160.705 24.1433 159.016 25.5967C157.327 27.0471 155.578 28.2707 153.769 29.2644C151.961 30.2582 150.2 30.7566 148.493 30.7566L148.499 30.7656Z" fill="#233345"/>
<path d="M170.022 30.7656C168.312 30.7656 167.16 30.4373 166.563 29.7807C165.967 29.1242 165.668 28.399 165.668 27.6051C165.668 26.5726 166.065 25.4803 166.862 24.3254C167.339 23.6509 167.877 22.8839 168.47 22.0304C169.067 21.1769 169.622 20.3711 170.139 19.6161C170.655 18.861 171.013 18.3239 171.213 18.0075C171.491 17.6106 171.661 17.342 171.72 17.2017C171.78 17.0645 171.81 16.9152 171.81 16.7541C171.81 16.5153 171.661 16.2885 171.362 16.0677C171.064 15.8498 170.577 15.7394 169.903 15.7394C169.703 15.7394 169.536 15.7484 169.396 15.7693C169.255 15.7901 169.106 15.7991 168.948 15.7991C168.629 15.7991 168.45 15.7782 168.411 15.7394L168.232 15.9782C167.119 17.4494 165.925 18.8909 164.653 20.2995C163.382 21.7111 161.991 23.0123 160.478 24.206C160.32 24.3254 160.201 24.385 160.12 24.385C159.962 24.385 159.881 24.3045 159.881 24.1463C159.881 23.83 160.12 23.4718 160.598 23.0719C161.83 22.0393 163.042 20.8755 164.236 19.5833C165.429 18.291 166.501 16.9302 167.456 15.4977C167.098 15.2589 166.919 14.7814 166.919 14.0682C166.919 12.9938 167.256 11.8419 167.933 10.6093C168.411 9.77372 168.936 9.14998 169.512 8.73217C170.088 8.31437 170.595 8.10547 171.031 8.10547C171.867 8.10547 172.284 8.60385 172.284 9.59465C172.284 10.2303 172.046 11.0241 171.568 11.9791C171.368 12.4566 170.98 13.0625 170.404 13.7966C169.828 14.5337 169.261 15.059 168.706 15.3753C169.542 15.0978 170.604 14.9098 171.896 14.8083C173.189 14.7098 174.272 14.6591 175.146 14.6591C175.663 14.6591 176.298 14.8083 177.053 15.1067C177.808 15.4052 178.187 15.9334 178.187 16.6855C178.187 17.2017 177.949 17.7598 177.471 18.3537C177.352 18.5119 177.032 18.8909 176.516 19.4878C176 20.0846 175.433 20.8009 174.818 21.6335C174.2 22.4691 173.636 23.3017 173.12 24.1373C172.604 24.8924 172.195 25.5877 171.896 26.2234C171.598 26.8591 171.449 27.3962 171.449 27.832C171.449 28.4676 171.807 28.787 172.523 28.787C173.359 28.787 174.469 28.39 175.863 27.5932C177.253 26.7994 178.754 25.7758 180.363 24.5223C181.972 23.2689 183.452 21.9677 184.804 20.6158C184.962 20.4577 185.102 20.3771 185.222 20.3771C185.38 20.3771 185.46 20.4756 185.46 20.6755C185.46 20.9143 185.362 21.1321 185.162 21.3321C183.771 22.7228 182.231 24.1433 180.542 25.5967C178.853 27.0471 177.104 28.2707 175.296 29.2644C173.487 30.2582 171.726 30.7566 170.019 30.7566L170.022 30.7656Z" fill="#233345"/>
<path d="M185.881 30.7657C184.649 30.7657 183.694 30.3777 183.019 29.6018C182.345 28.8259 182.004 27.8231 182.004 26.5906C182.004 25.4387 182.312 24.1673 182.93 22.7736C183.544 21.3829 184.529 19.9713 185.881 18.5418C187.272 17.0318 189 15.8082 191.068 14.8741C193.133 13.94 195.103 13.4714 196.971 13.4714C198.481 13.4714 199.773 13.7997 200.848 14.4563C201.922 15.1128 202.635 15.9365 202.993 16.9303C203.429 16.9303 203.978 17.0497 204.632 17.2884C205.288 17.5272 205.617 17.9659 205.617 18.6015C205.617 19.0402 205.399 19.5356 204.96 20.0937C204.682 20.4906 204.193 21.0875 203.501 21.8813C202.805 22.6781 202.158 23.5317 201.564 24.4449C201.086 25.1611 200.707 25.8266 200.43 26.4414C200.152 27.0591 200.012 27.5844 200.012 28.0201C200.012 28.617 200.31 28.9154 200.907 28.9154C201.582 28.9154 202.596 28.5394 203.948 27.7814C205.42 26.9457 206.831 25.9937 208.183 24.9194C209.535 23.845 210.588 22.9915 211.343 22.3558C211.543 22.1977 211.681 22.1171 211.761 22.1171C211.919 22.1171 212 22.2156 212 22.4155C212 22.6543 211.902 22.8721 211.702 23.0721C211.343 23.3914 210.648 23.9883 209.616 24.8597C208.58 25.7341 207.398 26.6473 206.067 27.6023C204.736 28.5573 203.432 29.3302 202.161 29.9271C201.525 30.2046 200.937 30.4135 200.403 30.5538C199.866 30.6941 199.379 30.7627 198.941 30.7627C197.866 30.7627 197.051 30.4553 196.496 29.8376C195.938 29.2228 195.661 28.417 195.661 27.4232C195.661 27.0263 195.72 26.6085 195.84 26.1698C195.959 25.7341 196.099 25.2954 196.258 24.8567L196.675 23.842C195.643 25.1134 194.607 26.1788 193.575 27.0323C192.542 27.8888 191.507 28.6319 190.474 29.2676C189.6 29.7838 188.776 30.1629 188 30.4016C187.224 30.6404 186.52 30.7597 185.884 30.7597L185.881 30.7657ZM187.728 29.2168C188.445 29.2168 189.477 28.7901 190.829 27.9336C192.181 27.08 193.751 25.758 195.538 23.9674C195.777 23.7286 196.225 23.3019 196.881 22.6841C197.538 22.0693 198.242 21.371 198.997 20.598C199.752 19.8221 200.4 19.0492 200.934 18.2732C201.468 17.4973 201.74 16.8527 201.74 16.3364C201.74 15.5814 201.083 15.2023 199.773 15.2023C198.618 15.2023 197.239 15.65 195.628 16.5453C194.016 17.4406 192.476 18.7627 191.008 20.5115C189.498 22.2991 188.394 23.842 187.699 25.1313C187.003 26.4235 186.654 27.4083 186.654 28.0828C186.654 28.8378 187.012 29.2168 187.728 29.2168Z" fill="#233345"/>
<path d="M7 27.3401H10V34.1187C10 34.7929 9.32881 35.3401 8.50169 35.3401C7.67457 35.3401 7.00339 34.7929 7.00339 34.1187V27.3401H7Z" fill="#6ABF6C"/>
<path d="M12 27.3401H14V34.1187C14 34.7929 13.5525 35.3401 13.0011 35.3401C12.4497 35.3401 12.0023 34.7929 12.0023 34.1187V27.3401H12Z" fill="#6ABF6C"/>
<path d="M3.47538 8.35037C3.67067 7.79517 4.06124 6.85582 4.84239 4.97113C5.15938 4.20585 5.43675 3.55461 5.98016 2.79833C6.2462 2.4292 6.65376 1.87099 7.34717 1.3488C7.75473 1.03968 8.42833 0.532507 9.39628 0.382452C10.7718 0.169374 11.8614 0.814603 12.3539 1.10571C13.2652 1.64591 13.8171 2.33916 14.1738 2.79533C14.4879 3.19748 14.7511 3.60863 15.0851 4.24487C16.0247 6.03652 15.9087 6.51669 16.905 8.83054C17.2616 9.65584 17.5474 10.2231 18.0427 11.4865C18.1899 11.8557 18.3286 12.2098 18.4984 12.693C19.0333 14.2085 19.3163 15.418 19.4097 15.8291C19.5399 16.4083 19.7522 17.3537 19.8654 18.4851C19.9984 19.8386 20.1654 21.5252 19.639 23.3108C18.9569 25.6187 17.4455 26.9692 16.6814 27.6565C15.9851 28.2807 13.9275 30.0663 10.7633 30.3124C7.16321 30.5915 4.63012 28.6798 3.93388 28.1396C3.3282 27.6685 1.93289 26.555 0.97626 24.5203C0.829087 24.2082 0.263035 22.9627 0.0649165 21.1411C-0.181316 18.8692 0.305489 17.1496 0.97626 14.8658C1.73194 12.2938 1.981 12.6239 3.48104 8.35037H3.47538Z" fill="#6ABF6C"/>
<path d="M10.4751 24.334C11.849 24.3977 12.849 23.9397 13.0439 23.8456C15.1559 22.8415 15.7438 20.7241 15.8716 20.1872C15.9419 19.8959 16.4403 17.5935 14.8428 15.5519C14.5744 15.2091 13.2676 13.5345 10.9895 13.3556C9.45583 13.2342 8.31199 13.8591 7.90621 14.0866C6.09459 15.1059 5.5003 16.7714 5.33735 17.2567C5.15523 17.7967 4.67916 19.274 5.33735 20.9152C6.18405 23.0235 8.43979 24.237 10.4751 24.331V24.334Z" fill="#F8D54F"/>
</svg>
