<svg width="221" height="59" viewBox="0 0 221 59" fill="none" xmlns="http://www.w3.org/2000/svg">
<g clip-path="url(#clip0_2_1890)">
<g clip-path="url(#clip1_2_1890)">
<path fill-rule="evenodd" clip-rule="evenodd" d="M7.41089 40.3545C5.45156 39.5485 3.74618 38.1873 2.5974 36.5661C0.729154 33.9325 0.521971 31.2103 1.05524 28.4913C1.4992 26.225 2.45361 23.9648 3.38464 21.7599C3.54171 21.388 3.69812 21.0176 3.8513 20.649C4.10119 20.0494 4.32949 19.4338 4.55866 18.8159C5.22992 17.0061 5.9086 15.1761 7.15901 13.6678C8.16431 12.4505 9.72985 11.688 11.1711 11.688C12.6124 11.688 14.3095 12.4505 15.3148 13.6661C16.5653 15.1759 17.244 17.0054 17.9154 18.8151C18.1445 19.4327 18.3727 20.0479 18.6225 20.6473C18.7764 21.0178 18.9337 21.3901 19.0917 21.764C20.0223 23.9674 20.9765 26.2268 21.4186 28.4897C21.9518 31.2086 21.7446 33.9325 19.8764 36.5645C18.7763 38.118 17.1828 39.4325 15.3313 40.2491V45.9149C15.3313 46.625 14.716 47.2006 13.957 47.2006C13.198 47.2006 12.5827 46.625 12.5827 45.9149V41.0423C12.1441 41.1052 11.6986 41.1396 11.2486 41.1428H11.2252C10.8676 41.1402 10.5119 41.1174 10.1594 41.0757V45.9149C10.1594 46.625 9.54415 47.2006 8.78513 47.2006C8.02615 47.2006 7.41089 46.625 7.41089 45.9149V40.3545ZM16.1947 30.4163C16.217 27.6584 14.0274 24.7371 11.3021 24.7198C8.57459 24.7051 6.34226 27.6009 6.32242 30.3585C6.30253 33.1163 8.49486 35.3651 11.2226 35.3821C13.9452 35.3973 16.1748 33.174 16.1947 30.4163Z" fill="white"/>
<path d="M29.2054 47.0121C28.3698 46.3346 27.7938 45.5527 27.4775 44.6574C27.1612 43.7621 27 42.8787 27 42.0043C27 40.533 27.3283 38.6469 27.9848 36.3401C28.6414 34.0361 29.5248 31.6099 30.6379 29.0672C30.5573 29.106 30.4797 29.1269 30.3992 29.1269C30.1992 29.1269 29.9903 28.9001 29.7725 28.4405C29.5546 27.9839 29.4442 27.4975 29.4442 26.9812C29.4442 26.4261 29.6322 25.868 30.0112 25.3129C30.3872 24.7578 31.1333 24.34 32.2465 24.0595C32.4852 23.9789 32.8016 23.9013 33.2015 23.8207C34.4728 21.4362 35.8456 19.2607 37.3169 17.291C38.7882 15.3243 40.2564 13.8441 41.7277 12.8503C42.6409 12.2146 43.6049 11.7461 44.6196 11.4477C45.6342 11.1492 46.637 11 47.6308 11C48.8245 11 49.9944 11.2179 51.1493 11.6566C52.3013 12.0953 53.2562 12.7399 54.0113 13.5934C54.7663 14.4499 55.1453 15.5123 55.1453 16.7837V16.8433C55.1453 17.0015 55.0856 17.0821 54.9663 17.0821C54.8469 17.0821 54.7484 16.9836 54.6678 16.7837C54.3903 15.7093 53.8531 14.9453 53.0593 14.4887C52.2625 14.0321 51.391 13.8023 50.436 13.8023C49.681 13.8023 48.926 13.9217 48.1709 14.1604C47.4159 14.3992 46.7593 14.6976 46.2042 15.0557C44.7747 15.9719 43.3423 17.2313 41.9128 18.8429C40.4833 20.4544 39.191 22.054 38.0361 23.6417C39.1105 23.7223 40.0714 23.9013 40.9279 24.1789C41.7814 24.4564 42.4082 24.7548 42.8051 25.0742C43.3602 25.4711 43.778 25.8889 44.0585 26.3276C44.2167 26.6051 44.2972 26.8439 44.2972 27.0438C44.2972 27.2826 44.1988 27.4019 43.9988 27.4019C43.8794 27.4019 43.7004 27.3423 43.4616 27.2229C42.7454 26.7454 41.6322 26.5066 40.1222 26.5066C39.4865 26.5066 38.7911 26.5574 38.0361 26.6559C37.2811 26.7543 36.4872 26.9245 35.6516 27.1632L34.8757 28.2972C33.6044 30.1654 32.5091 32.0844 31.5959 34.0511C30.6797 36.0177 29.9873 37.877 29.5098 39.6258C29.0323 41.3746 28.7936 42.8847 28.7936 44.156C28.7936 45.2692 29.0323 46.1227 29.5098 46.7196C29.6292 46.8778 29.6292 46.9882 29.5098 47.0479C29.3905 47.1076 29.292 47.0986 29.2114 47.018L29.2054 47.0121Z" fill="white"/>
<path d="M46.0192 42.2428C44.4703 42.2428 43.3064 41.8548 42.5305 41.0789C41.7546 40.303 41.3666 39.3002 41.3666 38.0677C41.3666 37.3126 41.4651 36.5755 41.665 35.8622C41.862 35.146 42.0828 34.5103 42.3216 33.9553C42.044 34.2328 41.7755 34.4835 41.5158 34.7013C41.2592 34.9192 41.0503 35.0893 40.8891 35.2087C40.7309 35.3281 40.5907 35.3877 40.4713 35.3877C40.3131 35.3877 40.2325 35.2893 40.2325 35.0893C40.2325 34.8118 40.4325 34.4924 40.8294 34.1343C42.2201 32.9824 43.3124 31.9587 44.1092 31.0634C44.903 30.1681 45.7387 29.3444 46.6131 28.5894C48.0843 27.3181 49.6541 26.3243 51.3224 25.608C52.9906 24.8918 54.6618 24.5337 56.3301 24.5337C57.9983 24.5337 59.4487 24.9515 60.4455 25.7871C61.4393 26.6227 61.9347 27.8553 61.9347 29.4847C61.9347 30.4009 61.6661 31.4514 61.1289 32.6451C60.5917 33.8389 59.7472 35.0714 58.5952 36.3427C58.1177 36.859 57.5805 37.3664 56.9866 37.8618C56.3898 38.3601 55.8735 38.7272 55.4378 38.966C57.3836 38.769 59.213 38.0826 60.923 36.9097C62.633 35.7369 64.161 34.576 65.5129 33.4211C65.7129 33.3017 65.8501 33.242 65.9307 33.242C66.1307 33.242 66.2291 33.3405 66.2291 33.5404C66.2291 33.6986 66.1307 33.8777 65.9307 34.0776C64.2207 35.7071 62.3823 37.0799 60.4156 38.193C58.449 39.3062 56.2704 39.8434 53.8859 39.8016C52.4952 40.5566 51.1343 41.1535 49.8003 41.5892C48.4693 42.0249 47.2069 42.2458 46.0132 42.2458L46.0192 42.2428ZM48.7021 40.5745C49.2572 40.5745 49.8541 40.476 50.4897 40.2761C51.1254 40.0761 51.7611 39.8195 52.3967 39.5002C52.158 39.5002 51.9282 39.3808 51.7103 39.142C51.4925 38.9033 51.382 38.587 51.382 38.1871C51.382 37.3932 51.6805 36.5785 52.2773 35.7429C52.8742 34.9073 53.6084 34.194 54.4828 33.5971C55.3572 33.0003 56.2107 32.7018 57.0463 32.7018C57.5238 32.7018 57.9715 32.8302 58.3893 33.0898C58.8071 33.3494 59.0339 33.6956 59.0757 34.1343C59.7501 33.3793 60.2187 32.5645 60.4783 31.6901C60.735 30.8157 60.8663 30.001 60.8663 29.246C60.8663 28.2134 60.538 27.4285 59.8814 26.8913C59.2249 26.3541 58.3415 26.0856 57.2284 26.0856C56.1152 26.0856 54.9722 26.4646 53.68 27.2196C52.3878 27.9746 51.1761 28.9475 50.0421 30.1413C48.908 31.335 47.9739 32.6272 47.2398 34.0179C46.5026 35.4086 46.1356 36.7396 46.1356 38.014C46.1356 39.724 46.9891 40.5775 48.6991 40.5775L48.7021 40.5745Z" fill="white"/>
<path d="M69.8074 42.2428C68.2585 42.2428 67.0946 41.8548 66.3187 41.0789C65.5428 40.303 65.1548 39.3002 65.1548 38.0677C65.1548 37.3126 65.2533 36.5755 65.4532 35.8622C65.6502 35.146 65.871 34.5103 66.1098 33.9553C65.8322 34.2328 65.5637 34.4835 65.304 34.7013C65.0474 34.9192 64.8385 35.0893 64.6773 35.2087C64.5191 35.3281 64.3789 35.3877 64.2595 35.3877C64.1013 35.3877 64.0208 35.2893 64.0208 35.0893C64.0208 34.8118 64.2207 34.4924 64.6176 34.1343C66.0083 32.9824 67.1006 31.9587 67.8974 31.0634C68.6912 30.1681 69.5269 29.3444 70.4013 28.5894C71.8725 27.3181 73.4423 26.3243 75.1106 25.608C76.7788 24.8918 78.45 24.5337 80.1183 24.5337C81.7865 24.5337 83.2369 24.9515 84.2337 25.7871C85.2275 26.6227 85.7229 27.8553 85.7229 29.4847C85.7229 30.4009 85.4543 31.4514 84.9171 32.6451C84.3799 33.8389 83.5354 35.0714 82.3834 36.3427C81.9059 36.859 81.3687 37.3664 80.7748 37.8618C80.178 38.3601 79.6617 38.7272 79.226 38.966C81.1718 38.769 83.0012 38.0826 84.7112 36.9097C86.4212 35.7369 87.9492 34.576 89.3011 33.4211C89.5011 33.3017 89.6383 33.242 89.7189 33.242C89.9189 33.242 90.0173 33.3405 90.0173 33.5404C90.0173 33.6986 89.9189 33.8777 89.7189 34.0776C88.0089 35.7071 86.1705 37.0799 84.2038 38.193C82.2372 39.3062 80.0586 39.8434 77.6741 39.8016C76.2834 40.5566 74.9225 41.1535 73.5885 41.5892C72.2575 42.0249 70.9952 42.2458 69.8014 42.2458L69.8074 42.2428ZM72.4903 40.5745C73.0454 40.5745 73.6423 40.476 74.2779 40.2761C74.9136 40.0761 75.5493 39.8195 76.1849 39.5002C75.9462 39.5002 75.7164 39.3808 75.4985 39.142C75.2807 38.9033 75.1702 38.587 75.1702 38.1871C75.1702 37.3932 75.4687 36.5785 76.0655 35.7429C76.6624 34.9073 77.3966 34.194 78.271 33.5971C79.1454 33.0003 79.9989 32.7018 80.8345 32.7018C81.312 32.7018 81.7597 32.8302 82.1775 33.0898C82.5953 33.3494 82.8221 33.6956 82.8639 34.1343C83.5383 33.3793 84.0069 32.5645 84.2665 31.6901C84.5232 30.8157 84.6545 30.001 84.6545 29.246C84.6545 28.2134 84.3262 27.4285 83.6697 26.8913C83.0131 26.3541 82.1297 26.0856 81.0166 26.0856C79.9034 26.0856 78.7604 26.4646 77.4682 27.2196C76.176 27.9746 74.9643 28.9475 73.8303 30.1413C72.6962 31.335 71.7621 32.6272 71.028 34.0179C70.2908 35.4086 69.9238 36.7396 69.9238 38.014C69.9238 39.724 70.7773 40.5775 72.4873 40.5775L72.4903 40.5745Z" fill="white"/>
<path d="M105.819 46.952C105.184 46.3939 104.715 45.6896 104.417 44.8361C104.118 43.9796 103.969 43.0186 103.969 41.9442C103.969 40.9504 104.08 39.897 104.297 38.7838C104.515 37.6707 104.805 36.4978 105.163 35.2653C104.408 36.2203 103.563 37.1932 102.629 38.187C101.695 39.1807 100.812 40.0343 99.9761 40.7505C98.3078 42.1024 96.4963 42.7769 94.5505 42.7769C93.0792 42.7769 91.8288 42.3083 90.7932 41.3742C89.7577 40.4401 89.2444 38.9808 89.2444 36.9932C89.2444 36.4769 89.2951 35.9785 89.3936 35.504C89.4921 35.0265 89.6204 34.549 89.7815 34.0745C89.5428 34.2745 89.313 34.4714 89.0951 34.6714C88.8773 34.8713 88.6684 35.0504 88.4684 35.2086C88.3103 35.328 88.1521 35.3876 87.9909 35.3876C87.791 35.3876 87.6925 35.2892 87.6925 35.0892C87.6925 34.8505 87.8925 34.5729 88.2894 34.2536C88.8057 33.8179 89.3936 33.221 90.0472 32.466C90.7037 31.7109 91.4289 30.8962 92.2227 30.0218C93.6134 28.4729 95.3115 27.2195 97.32 26.2645C99.3255 25.3095 101.304 24.835 103.253 24.835C104.921 24.835 106.145 25.1335 106.921 25.7303C107.697 26.3272 108.085 27.0434 108.085 27.8761C109.078 25.7691 110.12 23.7517 111.215 21.8238C112.307 19.8959 113.34 18.1978 114.316 16.7265C115.289 15.2553 116.094 14.163 116.73 13.4468C117.166 12.9305 117.715 12.5515 118.369 12.3127C119.025 12.074 119.691 11.9546 120.365 11.9546C121.04 11.9546 121.696 12.0531 122.332 12.253C122.967 12.453 123.526 12.7693 124 13.208C123.603 13.4468 122.976 14.0138 122.123 14.9061C121.266 15.8014 120.293 16.9026 119.201 18.2158C118.109 19.5289 116.975 20.9375 115.802 22.4475C114.629 23.9576 113.525 25.4677 112.492 26.9778C111.26 28.7654 110.096 30.6963 109.004 32.7614C107.908 34.8296 107.025 36.8261 106.351 38.754C105.673 40.6819 105.336 42.38 105.336 43.8512C105.336 45.045 105.596 45.9582 106.112 46.5938C106.231 46.752 106.231 46.8624 106.112 46.9221C105.992 46.9818 105.894 46.9908 105.813 46.952H105.819ZM96.3978 40.7505C97.1141 40.7505 98.0661 40.3834 99.2598 39.6463C100.454 38.9122 101.922 37.6498 103.671 35.8592C104.226 35.3041 104.673 34.8147 105.014 34.3998C105.351 33.982 105.64 33.5761 105.879 33.1762C106.079 32.6211 106.276 32.084 106.476 31.5677C106.676 31.0514 106.894 30.5351 107.133 30.0188C106.894 30.177 106.715 30.2576 106.595 30.2576C106.276 30.2576 106.118 30.0785 106.118 29.7204C106.118 29.5622 106.178 29.3623 106.297 29.1235C106.694 28.4491 106.894 27.8522 106.894 27.3359C106.894 26.5003 106.416 26.0825 105.464 26.0825C104.948 26.0825 104.253 26.2406 103.378 26.56C102.384 26.9569 101.361 27.5657 100.307 28.3774C99.2538 29.1922 98.2809 30.1471 97.3856 31.2394C96.4903 32.3347 95.7771 33.4568 95.2399 34.6087C94.7027 35.7607 94.4341 36.8559 94.4341 37.8885C94.4341 38.6436 94.5834 39.3091 94.8818 39.885C95.1802 40.461 95.6876 40.7505 96.4008 40.7505H96.3978Z" fill="white"/>
<path d="M118.995 42.3028C117.246 42.3028 115.784 41.8761 114.614 41.0226C113.441 40.1691 112.856 38.9276 112.856 37.2951C112.856 35.5463 113.274 33.9169 114.11 32.4068C114.945 30.8967 116.056 29.5746 117.449 28.4406C118.84 27.3065 120.359 26.4232 122.009 25.7875C123.66 25.1518 125.298 24.8325 126.928 24.8325C128.557 24.8325 129.769 25.122 130.566 25.698C131.359 26.2739 131.759 26.9812 131.759 27.8139C131.759 28.6465 131.392 29.4523 130.655 30.3476C129.918 31.2429 128.856 32.0278 127.465 32.7022C126.59 33.0991 125.588 33.4483 124.454 33.7467C123.32 34.0452 122.338 34.1944 121.502 34.1944C120.866 34.1944 120.547 34.0959 120.547 33.896C120.547 33.7378 120.825 33.6572 121.383 33.6572C121.899 33.6572 122.705 33.508 123.797 33.2096C124.889 32.9111 125.952 32.5053 126.987 31.986C128.139 31.3503 128.954 30.7147 129.431 30.079C129.909 29.4433 130.148 28.8673 130.148 28.3511C130.148 27.8736 129.96 27.4766 129.581 27.1573C129.202 26.841 128.676 26.6798 128.002 26.6798C127.366 26.6798 126.65 26.8589 125.856 27.217C124.701 27.7333 123.519 28.5779 122.308 29.7507C121.096 30.9236 120.09 32.2068 119.297 33.5975C118.5 34.9882 118.103 36.3193 118.103 37.5936C118.103 38.468 118.351 39.2021 118.849 39.799C119.344 40.3959 120.09 40.6943 121.084 40.6943C122.078 40.6943 123.311 40.366 124.662 39.7095C126.014 39.0529 127.384 38.2382 128.778 37.2653C130.169 36.2924 131.461 35.3076 132.655 34.3138C133.848 33.32 134.8 32.4874 135.517 31.8099C135.755 31.5712 135.934 31.4518 136.054 31.4518C136.173 31.4518 136.233 31.5503 136.233 31.7502C136.233 32.0278 136.113 32.2665 135.875 32.4665C134.365 33.8572 132.723 35.3076 130.956 36.8176C129.187 38.3277 127.301 39.611 125.292 40.6644C123.284 41.7179 121.189 42.2641 119.001 42.3028H118.995Z" fill="white"/>
<path d="M142.428 41.7656C140.718 41.7656 139.566 41.4373 138.969 40.7807C138.373 40.1242 138.074 39.399 138.074 38.6051C138.074 37.5726 138.471 36.4803 139.268 35.3254C139.745 34.6509 140.283 33.8839 140.876 33.0304C141.473 32.1769 142.028 31.3711 142.545 30.6161C143.061 29.861 143.419 29.3239 143.619 29.0075C143.897 28.6106 144.067 28.342 144.126 28.2017C144.186 28.0645 144.216 27.9152 144.216 27.7541C144.216 27.5153 144.067 27.2885 143.768 27.0677C143.47 26.8498 142.983 26.7394 142.306 26.7394C142.106 26.7394 141.939 26.7484 141.799 26.7693C141.658 26.7901 141.509 26.7991 141.351 26.7991C141.032 26.7991 140.853 26.7782 140.814 26.7394L140.635 26.9782C139.522 28.4494 138.328 29.8909 137.057 31.2995C135.785 32.7111 134.394 34.0123 132.881 35.206C132.723 35.3254 132.604 35.385 132.523 35.385C132.365 35.385 132.285 35.3045 132.285 35.1463C132.285 34.83 132.523 34.4718 133.001 34.0719C134.233 33.0393 135.445 31.8755 136.639 30.5833C137.832 29.291 138.904 27.9302 139.859 26.4977C139.501 26.2589 139.322 25.7814 139.322 25.0682C139.322 23.9938 139.659 22.8419 140.336 21.6093C140.814 20.7737 141.339 20.15 141.915 19.7322C142.491 19.3144 142.998 19.1055 143.434 19.1055C144.27 19.1055 144.687 19.6039 144.687 20.5947C144.687 21.2303 144.449 22.0241 143.971 22.9791C143.771 23.4566 143.383 24.0625 142.807 24.7966C142.231 25.5337 141.664 26.059 141.109 26.3753C141.945 26.0978 143.007 25.9098 144.3 25.8083C145.592 25.7098 146.675 25.6591 147.549 25.6591C148.066 25.6591 148.701 25.8083 149.456 26.1067C150.211 26.4052 150.591 26.9334 150.591 27.6855C150.591 28.2017 150.352 28.7598 149.874 29.3537C149.755 29.5119 149.436 29.8909 148.919 30.4878C148.403 31.0846 147.836 31.8009 147.221 32.6335C146.603 33.4691 146.039 34.3017 145.523 35.1373C145.007 35.8924 144.598 36.5877 144.3 37.2234C144.001 37.8591 143.852 38.3962 143.852 38.832C143.852 39.4676 144.21 39.787 144.926 39.787C145.762 39.787 146.872 39.39 148.266 38.5932C149.656 37.7994 151.158 36.7758 152.766 35.5223C154.375 34.2689 155.855 32.9677 157.207 31.6158C157.365 31.4577 157.505 31.3771 157.625 31.3771C157.783 31.3771 157.863 31.4756 157.863 31.6755C157.863 31.9143 157.765 32.1321 157.565 32.3321C156.174 33.7228 154.634 35.1433 152.945 36.5967C151.256 38.0471 149.507 39.2707 147.699 40.2644C145.89 41.2582 144.129 41.7566 142.422 41.7566L142.428 41.7656Z" fill="white"/>
<path d="M163.951 41.7656C162.241 41.7656 161.089 41.4373 160.493 40.7807C159.896 40.1242 159.597 39.399 159.597 38.6051C159.597 37.5726 159.994 36.4803 160.791 35.3254C161.269 34.6509 161.806 33.8839 162.4 33.0304C162.996 32.1769 163.552 31.3711 164.068 30.6161C164.584 29.861 164.942 29.3239 165.142 29.0075C165.42 28.6106 165.59 28.342 165.65 28.2017C165.709 28.0645 165.739 27.9152 165.739 27.7541C165.739 27.5153 165.59 27.2885 165.291 27.0677C164.993 26.8498 164.507 26.7394 163.832 26.7394C163.632 26.7394 163.465 26.7484 163.325 26.7693C163.184 26.7901 163.035 26.7991 162.877 26.7991C162.558 26.7991 162.379 26.7782 162.34 26.7394L162.161 26.9782C161.048 28.4494 159.854 29.8909 158.583 31.2995C157.311 32.7111 155.921 34.0123 154.408 35.206C154.249 35.3254 154.13 35.385 154.049 35.385C153.891 35.385 153.811 35.3045 153.811 35.1463C153.811 34.83 154.049 34.4718 154.527 34.0719C155.759 33.0393 156.971 31.8755 158.165 30.5833C159.359 29.291 160.43 27.9302 161.385 26.4977C161.027 26.2589 160.848 25.7814 160.848 25.0682C160.848 23.9938 161.185 22.8419 161.862 21.6093C162.34 20.7737 162.865 20.15 163.441 19.7322C164.017 19.3144 164.524 19.1055 164.96 19.1055C165.796 19.1055 166.214 19.6039 166.214 20.5947C166.214 21.2303 165.975 22.0241 165.497 22.9791C165.297 23.4566 164.909 24.0625 164.333 24.7966C163.757 25.5337 163.19 26.059 162.635 26.3753C163.471 26.0978 164.533 25.9098 165.826 25.8083C167.118 25.7098 168.201 25.6591 169.076 25.6591C169.592 25.6591 170.228 25.8083 170.983 26.1067C171.738 26.4052 172.117 26.9334 172.117 27.6855C172.117 28.2017 171.878 28.7598 171.4 29.3537C171.281 29.5119 170.962 29.8909 170.445 30.4878C169.929 31.0846 169.362 31.8009 168.747 32.6335C168.13 33.4691 167.566 34.3017 167.049 35.1373C166.533 35.8924 166.124 36.5877 165.826 37.2234C165.527 37.8591 165.378 38.3962 165.378 38.832C165.378 39.4676 165.736 39.787 166.452 39.787C167.288 39.787 168.398 39.39 169.792 38.5932C171.183 37.7994 172.684 36.7758 174.292 35.5223C175.901 34.2689 177.381 32.9677 178.733 31.6158C178.891 31.4577 179.031 31.3771 179.151 31.3771C179.309 31.3771 179.389 31.4756 179.389 31.6755C179.389 31.9143 179.291 32.1321 179.091 32.3321C177.7 33.7228 176.16 35.1433 174.471 36.5967C172.782 38.0471 171.033 39.2707 169.225 40.2644C167.416 41.2582 165.656 41.7566 163.948 41.7566L163.951 41.7656Z" fill="white"/>
<path d="M179.81 41.7655C178.578 41.7655 177.623 41.3775 176.948 40.6016C176.274 39.8256 175.934 38.8229 175.934 37.5904C175.934 36.4384 176.241 35.1671 176.859 33.7734C177.474 32.3827 178.458 30.9711 179.81 29.5416C181.201 28.0315 182.929 26.8079 184.997 25.8738C187.062 24.9397 189.032 24.4712 190.9 24.4712C192.41 24.4712 193.702 24.7995 194.777 25.456C195.851 26.1126 196.564 26.9363 196.922 27.9301C197.358 27.9301 197.907 28.0494 198.561 28.2882C199.217 28.5269 199.546 28.9656 199.546 29.6013C199.546 30.04 199.328 30.5354 198.889 31.0934C198.612 31.4904 198.122 32.0872 197.43 32.8811C196.734 33.6779 196.087 34.5314 195.493 35.4446C195.015 36.1609 194.636 36.8264 194.359 37.4411C194.081 38.0589 193.941 38.5841 193.941 39.0199C193.941 39.6167 194.24 39.9152 194.836 39.9152C195.511 39.9152 196.526 39.5391 197.877 38.7811C199.349 37.9455 200.76 36.9935 202.112 35.9191C203.464 34.8448 204.518 33.9912 205.273 33.3556C205.473 33.1974 205.61 33.1168 205.69 33.1168C205.849 33.1168 205.929 33.2153 205.929 33.4153C205.929 33.654 205.831 33.8719 205.631 34.0718C205.273 34.3911 204.577 34.988 203.545 35.8594C202.509 36.7339 201.327 37.6471 199.996 38.6021C198.665 39.557 197.361 40.33 196.09 40.9269C195.454 41.2044 194.866 41.4133 194.332 41.5536C193.795 41.6938 193.308 41.7625 192.87 41.7625C191.795 41.7625 190.981 41.4551 190.426 40.8373C189.867 40.2226 189.59 39.4168 189.59 38.423C189.59 38.0261 189.65 37.6083 189.769 37.1696C189.888 36.7338 190.029 36.2952 190.187 35.8565L190.605 34.8418C189.572 36.1131 188.536 37.1785 187.504 38.032C186.471 38.8885 185.436 39.6316 184.403 40.2673C183.529 40.7836 182.705 41.1626 181.929 41.4014C181.153 41.6401 180.449 41.7595 179.813 41.7595L179.81 41.7655ZM181.658 40.2166C182.374 40.2166 183.406 39.7898 184.758 38.9333C186.11 38.0798 187.68 36.7577 189.468 34.9671C189.706 34.7284 190.154 34.3016 190.811 33.6839C191.467 33.0691 192.171 32.3707 192.926 31.5978C193.681 30.8219 194.329 30.0489 194.863 29.273C195.397 28.4971 195.669 27.8525 195.669 27.3362C195.669 26.5811 195.013 26.2021 193.702 26.2021C192.547 26.2021 191.169 26.6498 189.557 27.5451C187.946 28.4404 186.406 29.7624 184.937 31.5113C183.427 33.2989 182.323 34.8418 181.628 36.131C180.932 37.4232 180.583 38.4081 180.583 39.0825C180.583 39.8376 180.941 40.2166 181.658 40.2166Z" fill="white"/>
</g>
</g>
<defs>
<clipPath id="clip0_2_1890">
<rect width="220" height="58" fill="white" transform="translate(0.800049 0.600098)"/>
</clipPath>
<clipPath id="clip1_2_1890">
<rect width="220" height="35.8246" fill="white" transform="translate(0.800049 11.688)"/>
</clipPath>
</defs>
</svg>
